<svg width="35" height="35" viewBox="0 0 35 35" fill="none" xmlns="http://www.w3.org/2000/svg">
<path d="M34.4167 16.9167H31.0333C30.7417 9.91667 25.0833 4.25833 18.0833 3.96667V0.583333C18.0833 0.233333 17.85 0 17.5 0C17.15 0 16.9167 0.233333 16.9167 0.583333V3.96667C9.91667 4.25833 4.25833 9.91667 3.96667 16.9167H0.583333C0.233333 16.9167 0 17.15 0 17.5C0 17.85 0.233333 18.0833 0.583333 18.0833H3.96667C4.25833 25.0833 9.91667 30.7417 16.9167 31.0333V34.4167C16.9167 34.7667 17.15 35 17.5 35C17.85 35 18.0833 34.7667 18.0833 34.4167V31.0333C25.0833 30.7417 30.7417 25.0833 31.0333 18.0833H34.4167C34.7667 18.0833 35 17.85 35 17.5C35 17.15 34.7667 16.9167 34.4167 16.9167ZM27.0083 18.0833H29.8667C29.575 24.4417 24.4417 29.575 18.0833 29.8667V27.0083C18.0833 26.6583 17.85 26.425 17.5 26.425C17.15 26.425 16.9167 26.6583 16.9167 27.0083V29.8667C10.5583 29.575 5.425 24.4417 5.13333 18.0833H7.99167C8.34167 18.0833 8.575 17.85 8.575 17.5C8.575 17.15 8.34167 16.9167 7.99167 16.9167H5.13333C5.425 10.5583 10.5583 5.425 16.9167 5.13333V7.99167C16.9167 8.34167 17.15 8.575 17.5 8.575C17.85 8.575 18.0833 8.34167 18.0833 7.99167V5.13333C24.4417 5.425 29.575 10.5583 29.8667 16.9167H27.0083C26.6583 16.9167 26.425 17.15 26.425 17.5C26.425 17.85 26.7167 18.0833 27.0083 18.0833Z" fill="black"/>
<path d="M15.3837 20.9526C15.2352 21.101 15.2352 21.3238 15.3837 21.4723C15.5322 21.6207 15.7549 21.6207 15.9034 21.4723L19.6155 17.7601C19.764 17.6116 19.764 17.3889 19.6155 17.2404L15.9034 13.5283C15.7549 13.3798 15.5322 13.3798 15.3837 13.5283C15.2352 13.6768 15.2352 13.8995 15.3837 14.048L18.836 17.5003L15.3837 20.9526Z" fill="black"/>
</svg>
