<svg width="35" height="35" viewBox="0 0 35 35" fill="none" xmlns="http://www.w3.org/2000/svg">
<path d="M0.583335 16.9167H3.96667C4.25833 9.91667 9.91667 4.25833 16.9167 3.96667V0.583333C16.9167 0.233333 17.15 0 17.5 0C17.85 0 18.0833 0.233333 18.0833 0.583333V3.96667C25.0833 4.25833 30.7417 9.91667 31.0333 16.9167H34.4167C34.7667 16.9167 35 17.15 35 17.5C35 17.85 34.7667 18.0833 34.4167 18.0833H31.0333C30.7417 25.0833 25.0833 30.7417 18.0833 31.0333V34.4167C18.0833 34.7667 17.85 35 17.5 35C17.15 35 16.9167 34.7667 16.9167 34.4167V31.0333C9.91667 30.7417 4.25833 25.0833 3.96667 18.0833H0.583335C0.233335 18.0833 1.19209e-06 17.85 1.19209e-06 17.5C1.19209e-06 17.15 0.233335 16.9167 0.583335 16.9167ZM7.99167 18.0833H5.13333C5.425 24.4417 10.5583 29.575 16.9167 29.8667V27.0083C16.9167 26.6583 17.15 26.425 17.5 26.425C17.85 26.425 18.0833 26.6583 18.0833 27.0083V29.8667C24.4417 29.575 29.575 24.4417 29.8667 18.0833H27.0083C26.6583 18.0833 26.425 17.85 26.425 17.5C26.425 17.15 26.6583 16.9167 27.0083 16.9167H29.8667C29.575 10.5583 24.4417 5.425 18.0833 5.13333V7.99167C18.0833 8.34167 17.85 8.575 17.5 8.575C17.15 8.575 16.9167 8.34167 16.9167 7.99167V5.13333C10.5583 5.425 5.425 10.5583 5.13333 16.9167H7.99167C8.34167 16.9167 8.575 17.15 8.575 17.5C8.575 17.85 8.28333 18.0833 7.99167 18.0833Z" fill="black"/>
<path d="M19.6163 20.9526C19.7648 21.101 19.7648 21.3238 19.6163 21.4723C19.4678 21.6207 19.2451 21.6207 19.0966 21.4723L15.3845 17.7601C15.236 17.6116 15.236 17.3889 15.3845 17.2404L19.0966 13.5283C19.2451 13.3798 19.4678 13.3798 19.6163 13.5283C19.7648 13.6768 19.7648 13.8995 19.6163 14.048L16.164 17.5003L19.6163 20.9526Z" fill="black"/>
</svg>
