<svg width="20" height="20" viewBox="0 0 20 20" fill="none" xmlns="http://www.w3.org/2000/svg">
<path d="M0 14.3808C0 11.4635 0 8.54626 0 5.62898C0.132062 5.05629 0.523355 4.72834 1.02715 4.46402C3.57545 3.12775 6.10907 1.7719 8.65248 0.425844C8.97041 0.259422 9.31279 0.141948 9.64539 0C9.7481 0 9.85571 0 9.95843 0C10.1345 0.0636319 10.3204 0.107685 10.4818 0.190896C13.3725 1.64954 16.2583 3.11796 19.144 4.5766C19.7212 4.86539 19.9951 5.32061 19.9951 5.96672C19.9902 8.65394 19.9902 11.3461 19.9951 14.0333C19.9951 14.6794 19.7212 15.1346 19.1489 15.4283C16.268 16.8869 13.3871 18.3505 10.5062 19.8091C10.0122 20.0587 9.53289 20.0587 9.03889 19.7944C6.3732 18.37 3.70751 16.9506 1.03204 15.5458C0.523355 15.2815 0.132062 14.9584 0 14.3808ZM18.8212 6.37788C18.7821 6.38277 18.7625 6.38277 18.7479 6.39256C17.662 6.93588 16.5713 7.4743 15.4854 8.02252C15.4268 8.05188 15.3827 8.16446 15.3827 8.23789C15.373 9.02594 15.3827 9.814 15.3778 10.6021C15.3778 10.979 15.1284 11.2482 14.7909 11.2482C14.4534 11.2482 14.2089 10.9838 14.2089 10.607C14.204 10.0294 14.2089 9.44689 14.2089 8.86931C14.2089 8.81057 14.204 8.74694 14.1991 8.66862C14.1159 8.70778 14.0572 8.73226 14.0034 8.75673C12.854 9.32942 11.6997 9.907 10.5454 10.4748C10.3986 10.5482 10.3595 10.6314 10.3595 10.7881C10.3644 13.2991 10.3644 15.815 10.3644 18.326C10.3644 18.3945 10.3644 18.463 10.3644 18.556C10.4427 18.5218 10.4965 18.5022 10.5503 18.4777C13.2257 17.1219 15.9061 15.7611 18.5816 14.4053C18.7625 14.3123 18.831 14.1948 18.8261 13.9941C18.8212 11.5223 18.8212 9.04552 18.8212 6.57367C18.8212 6.51003 18.8212 6.4464 18.8212 6.37788ZM9.18562 18.5365C9.19051 18.4582 9.1954 18.4141 9.1954 18.37C9.1954 15.8248 9.1954 13.2795 9.20029 10.7342C9.20029 10.5874 9.13671 10.5335 9.02421 10.4748C6.46613 9.13852 3.91294 7.80715 1.36464 6.47577C1.31083 6.4464 1.25214 6.42193 1.17388 6.38277C1.17388 6.47577 1.17388 6.5394 1.17388 6.60303C1.17388 9.06999 1.17388 11.537 1.16899 14.0039C1.16899 14.2193 1.24725 14.3319 1.42822 14.4298C3.94718 15.7611 6.45635 17.0974 8.97041 18.4288C9.03399 18.463 9.09758 18.4924 9.18562 18.5365ZM1.81952 5.37934C1.88799 5.4185 1.93201 5.45277 1.98582 5.47724C4.53901 6.80862 7.0922 8.13999 9.6405 9.47626C9.753 9.535 9.83615 9.5301 9.94375 9.47137C11.1127 8.884 12.2817 8.30641 13.4507 7.72394C13.4996 7.69946 13.5485 7.67009 13.617 7.63583C13.5583 7.60157 13.5192 7.5722 13.4752 7.54772C10.8926 6.17719 8.31499 4.81155 5.73734 3.44591C5.62485 3.38718 5.5417 3.39697 5.43409 3.4557C4.52433 3.94518 3.60968 4.42976 2.69993 4.91434C2.41135 5.06118 2.12766 5.21292 1.81952 5.37934ZM6.85742 2.70191C6.89655 2.73128 6.91612 2.74107 6.93079 2.75086C9.55735 4.14097 12.179 5.53108 14.8105 6.9163C14.8741 6.95056 14.9865 6.94567 15.055 6.9163C16.0333 6.43661 17.0115 5.94714 17.9897 5.45766C18.0337 5.43808 18.068 5.40871 18.1169 5.37934C18.0924 5.35977 18.0778 5.35487 18.068 5.34998C15.3632 3.97455 12.6535 2.60401 9.94864 1.22859C9.82147 1.16495 9.71876 1.17964 9.60137 1.24327C8.98508 1.57611 8.3639 1.90406 7.74272 2.23201C7.45415 2.38375 7.17046 2.53549 6.85742 2.70191Z" fill="#3D4A26"/>
</svg>
