<svg width="30" height="30" viewBox="0 0 30 30" fill="none" xmlns="http://www.w3.org/2000/svg">
<circle cx="15" cy="15" r="15" fill="#F0EBE3"/>
<path d="M15.0222 9.36176C15.358 9.03591 15.6939 8.65083 16.0908 8.33091C17.6603 7.06902 19.4373 6.64839 21.3854 7.31192C23.3579 7.98137 24.4876 9.3973 24.8906 11.3701C25.196 12.8631 24.8418 14.2435 24.0785 15.5409C23.1991 17.0516 21.99 18.2957 20.6648 19.4451C19.3335 20.6003 17.9045 21.6312 16.4023 22.5672C15.5046 23.1241 14.5642 23.1537 13.6665 22.5968C11.6512 21.3468 9.75815 19.9486 8.09101 18.278C7.05287 17.2293 6.11243 16.1037 5.53229 14.7411C4.6346 12.6261 4.84834 10.6177 6.3567 8.83449C8.13376 6.71948 11.352 6.41141 13.6054 8.09394C14.1123 8.4731 14.5519 8.94112 15.0222 9.36176ZM6.15518 12.5313C6.1735 12.6972 6.17961 12.9697 6.24067 13.2363C6.30174 13.5325 6.38724 13.8228 6.49716 14.1072C6.96127 15.2861 7.73682 16.2696 8.60398 17.1879C10.2528 18.9237 12.1703 20.3337 14.1978 21.6193C14.7351 21.957 15.2664 21.957 15.8038 21.6193C17.2878 20.6833 18.7106 19.6702 20.0175 18.5149C21.1655 17.5019 22.2281 16.4118 23.0159 15.1025C23.7059 13.9591 24.0113 12.7564 23.7304 11.4294C23.2113 8.98852 20.6892 7.54889 18.2832 8.35461C17.074 8.75747 16.2191 9.58096 15.5657 10.6118C15.2298 11.1391 14.7718 11.1391 14.4359 10.6118C14.0756 10.049 13.6481 9.54541 13.123 9.11886C11.5474 7.85104 9.35511 7.79179 7.79178 9.00037C6.66815 9.87718 6.19793 11.0561 6.15518 12.5313Z" fill="#3D4A26"/>
</svg>
